<!-- This Source Code Form is subject to the terms of the Mozilla Public
   - License, v. 2.0. If a copy of the MPL was not distributed with this
   - file, You can obtain one at http://mozilla.org/MPL/2.0/. -->
<svg xmlns="http://www.w3.org/2000/svg" viewBox="0 0 20 20" width="20" height="20" fill="context-fill" fill-opacity="context-fill-opacity">
  <!-- Shield outline -->
  <path d="M10 1 L3 4 L3 10 C3 14.5 6 17.8 10 19 C14 17.8 17 14.5 17 10 L17 4 Z M10 2.5 L15.5 5 L15.5 10 C15.5 13.7 13.1 16.5 10 17.5 C6.9 16.5 4.5 13.7 4.5 10 L4.5 5 Z"/>
  <!-- Flame inside shield -->
  <path d="M10 6 C10 6 8 8 8 10 C8 10.8 8.4 11.5 9 12 C9 11.2 9.4 10.5 10 10 C10.6 10.5 11 11.2 11 12 C11.6 11.5 12 10.8 12 10 C12 8 10 6 10 6 Z"/>
</svg>
